<?xml version="1.0" encoding="UTF-8"?>
<svg version="1.1" xmlns="http://www.w3.org/2000/svg" width="64" height="64">
<path d="M0 0 C0.66 0.33 1.32 0.66 2 1 C2.16796875 2.93359375 2.16796875 2.93359375 2.1875 5.4375 C2.60550731 11.14207034 4.93966472 14.44551459 8.40625 18.87109375 C10 21 10 21 11 24 C10.34 24 9.68 24 9 24 C8.95101562 24.67546875 8.90203125 25.3509375 8.8515625 26.046875 C8.77679688 26.93890625 8.70203125 27.8309375 8.625 28.75 C8.55539063 29.63171875 8.48578125 30.5134375 8.4140625 31.421875 C8.00149945 33.99066382 7.28839043 35.75841015 6 38 C6.99 38.8353125 6.99 38.8353125 8 39.6875 C10 42 10 42 10.25 44.75 C10.1675 45.4925 10.085 46.235 10 47 C9.01 47.33 8.02 47.66 7 48 C7 48.99 7 49.98 7 51 C5.125 50.75 5.125 50.75 3 50 C1.75 47.9375 1.75 47.9375 1 46 C-2.52863777 46.32824537 -4.5233487 46.58955027 -7.25 48.9375 C-11.20333242 51.90249931 -15.11863757 52.62392019 -20 53 C-25.83126347 52.09514877 -30.20197244 49.26515122 -35 46 C-35.78375 46.66 -36.5675 47.32 -37.375 48 C-40 50 -40 50 -42 50 C-42 49.01 -42 48.02 -42 47 C-42.99 46.67 -43.98 46.34 -45 46 C-45 44.02 -45 42.04 -45 40 C-44.01 39.505 -44.01 39.505 -43 39 C-43.28094582 37.1858073 -43.57506433 35.37364999 -43.875 33.5625 C-44.03742187 32.55316406 -44.19984375 31.54382813 -44.3671875 30.50390625 C-44.57601562 29.67761719 -44.78484375 28.85132812 -45 28 C-45.66 27.67 -46.32 27.34 -47 27 C-43.61103545 17.62959112 -40.02236311 9.40319498 -30.875 4.5625 C-24.45665284 1.77137968 -17.84415372 1.1190481 -11 2.6875 C-7.29210165 3.07373941 -5.08142942 2.09862718 -1.734375 0.59375 C-0.87585937 0.29984375 -0.87585937 0.29984375 0 0 Z M-3 6 C-5.33742125 8.16208093 -7.63966426 10.35845347 -9.9375 12.5625 C-10.9265332 13.47612305 -10.9265332 13.47612305 -11.93554688 14.40820312 C-15.17457985 17.54757355 -16.82503709 19.31708024 -17.96875 23.78125 C-17.99724412 26.71614448 -17.77050895 29.17480052 -17 32 C-15.02 32 -13.04 32 -11 32 C-9.46681219 28.04634027 -7.95056575 24.08639947 -6.4375 20.125 C-5.99986328 18.99707031 -5.56222656 17.86914062 -5.11132812 16.70703125 C-4.70205078 15.63066406 -4.29277344 14.55429687 -3.87109375 13.4453125 C-3.48880615 12.45031738 -3.10651855 11.45532227 -2.71264648 10.43017578 C-1.70636645 8.01990627 -1.70636645 8.01990627 -3 6 Z M-30 19 C-28.35 23.29 -26.7 27.58 -25 32 C-24.01 32 -23.02 32 -22 32 C-22 28.7 -22 25.4 -22 22 C-24.97 21.505 -24.97 21.505 -28 21 C-28 20.34 -28 19.68 -28 19 C-28.66 19 -29.32 19 -30 19 Z M-5 25 C-7.2013866 28.80427492 -7.2013866 28.80427492 -8 33 C-5.00675737 31.9024777 -4.15389099 31.32317108 -2.75 28.375 C-2.5025 27.59125 -2.255 26.8075 -2 26 C-2.99 25.67 -3.98 25.34 -5 25 Z M-33 29 C-33 30.32 -33 31.64 -33 33 C-32.01 33 -31.02 33 -30 33 C-30.66 31.68 -31.32 30.36 -32 29 C-32.33 29 -32.66 29 -33 29 Z M1 29 C0.01 30.98 -0.98 32.96 -2 35 C-1.01 35 -0.02 35 1 35 C1.66 33.35 2.32 31.7 3 30 C2.34 29.67 1.68 29.34 1 29 Z M-38 33 C-37.67 33.99 -37.34 34.98 -37 36 C-37 35.01 -37 34.02 -37 33 C-37.33 33 -37.66 33 -38 33 Z M-25 40 C-24.01 41.485 -24.01 41.485 -23 43 C-21.68 43 -20.36 43 -19 43 C-19 42.01 -19 41.02 -19 40 C-20.98 40 -22.96 40 -25 40 Z M-18 40 C-18 40.99 -18 41.98 -18 43 C-14.06924356 42.42547254 -14.06924356 42.42547254 -11 40 C-13.31 40 -15.62 40 -18 40 Z M-11 41 C-10.67 41.99 -10.34 42.98 -10 44 C-8.35 43.67 -6.7 43.34 -5 43 C-7.81509993 40.7226499 -7.81509993 40.7226499 -11 41 Z M-32 42 C-31.34 42.66 -30.68 43.32 -30 44 C-29.67 43.34 -29.34 42.68 -29 42 C-29.99 42 -30.98 42 -32 42 Z M-17 44 C-17 44.99 -17 45.98 -17 47 C-16.01 46.01 -15.02 45.02 -14 44 C-14.99 44 -15.98 44 -17 44 Z M-8 44 C-8.99 44.99 -9.98 45.98 -11 47 C-9.68 46.67 -8.36 46.34 -7 46 C-7.33 45.34 -7.66 44.68 -8 44 Z M-21 45 C-20.34 45.66 -19.68 46.32 -19 47 C-19 46.34 -19 45.68 -19 45 C-19.66 45 -20.32 45 -21 45 Z M-23 48 C-23 48.33 -23 48.66 -23 49 C-20.03 49 -17.06 49 -14 49 C-14 48.67 -14 48.34 -14 48 C-16.97 48 -19.94 48 -23 48 Z " fill="#EAB04D" transform="translate(50,5)"/>
<path d="M0 0 C0.33 0 0.66 0 1 0 C1.185625 1.27875 1.37125 2.5575 1.5625 3.875 C2.68300032 9.08203091 5.2450407 12.64942961 8.44140625 16.8359375 C10 19 10 19 11 22 C10.34 22 9.68 22 9 22 C8.96261719 22.66386719 8.92523438 23.32773437 8.88671875 24.01171875 C8.5100897 29.07036379 8.18794705 32.84180819 5 37 C3.35 36.34 1.7 35.68 0 35 C0.66 32.69 1.32 30.38 2 28 C0.68 29.65 -0.64 31.3 -2 33 C-3.32 32.67 -4.64 32.34 -6 32 C-4 28 -4 28 -2 24 C-5.2985139 24.72268235 -5.2985139 24.72268235 -6.6875 28.0625 C-7.120625 29.031875 -7.55375 30.00125 -8 31 C-8.99 31 -9.98 31 -11 31 C-9.63287812 24.01407875 -7.52641226 17.62279881 -4.9375 11 C-4.57333984 10.04738281 -4.20917969 9.09476563 -3.83398438 8.11328125 C-1.14513465 1.14513465 -1.14513465 1.14513465 0 0 Z " fill="#444241" transform="translate(50,7)"/>
<path d="M0 0 C0.78375 0.309375 1.5675 0.61875 2.375 0.9375 C2.375 1.5975 2.375 2.2575 2.375 2.9375 C4.0146875 3.3396875 4.0146875 3.3396875 5.6875 3.75 C10.76870079 5.3863189 10.76870079 5.3863189 12.375 7.9375 C12.5625 10.625 12.5625 10.625 12.375 12.9375 C11.385 13.2675 10.395 13.5975 9.375 13.9375 C9.375 14.9275 9.375 15.9175 9.375 16.9375 C7.5 16.6875 7.5 16.6875 5.375 15.9375 C4.25 13.9375 4.25 13.9375 3.375 11.9375 C2.715 11.6075 2.055 11.2775 1.375 10.9375 C1.375 10.2775 1.375 9.6175 1.375 8.9375 C-9.87814865 6.03346164 -23.45569209 5.21439736 -34.625 8.9375 C-34.625 8.2775 -34.625 7.6175 -34.625 6.9375 C-35.285 6.9375 -35.945 6.9375 -36.625 6.9375 C-36.295 5.9475 -35.965 4.9575 -35.625 3.9375 C-32.6875 2.6875 -32.6875 2.6875 -29.625 1.9375 C-28.965 2.2675 -28.305 2.5975 -27.625 2.9375 C-27.625 2.2775 -27.625 1.6175 -27.625 0.9375 C-26.635 1.2675 -25.645 1.5975 -24.625 1.9375 C-24.295 1.2775 -23.965 0.6175 -23.625 -0.0625 C-22.26375 -0.000625 -22.26375 -0.000625 -20.875 0.0625 C-17.74295869 0.18091312 -17.74295869 0.18091312 -15.7265625 -1.0859375 C-10.95662823 -3.30244971 -4.83642549 -1.41757299 0 0 Z " fill="#F1B756" transform="translate(47.625,39.0625)"/>
<path d="M0 0 C0.33 0.99 0.66 1.98 1 3 C3.31 2.34 5.62 1.68 8 1 C8.33 1.66 8.66 2.32 9 3 C10.670625 2.7215625 10.670625 2.7215625 12.375 2.4375 C16 2 16 2 18 3 C18 3.66 18 4.32 18 5 C17.071875 5.433125 16.14375 5.86625 15.1875 6.3125 C12.10210857 7.71920957 12.10210857 7.71920957 10.59765625 9.5234375 C7.47657391 12.40795858 3.10737831 12.65149517 -1 13 C-3.74631982 12.71935418 -5.41657471 12.13024856 -8 11 C-10.32883474 7.5067479 -10 6.07077422 -10 2 C-5.94568308 0.84162374 -3.78187881 1.16308743 0 3 C0 2.01 0 1.02 0 0 Z M2 4 C2 4.99 2 5.98 2 7 C2.99 6.01 3.98 5.02 5 4 C4.01 4 3.02 4 2 4 Z M11 4 C10.01 4.99 9.02 5.98 8 7 C9.32 6.67 10.64 6.34 12 6 C11.67 5.34 11.34 4.68 11 4 Z M-2 5 C-1.34 5.66 -0.68 6.32 0 7 C0 6.34 0 5.68 0 5 C-0.66 5 -1.32 5 -2 5 Z M-4 8 C-4 8.33 -4 8.66 -4 9 C-1.03 9 1.94 9 5 9 C5 8.67 5 8.34 5 8 C2.03 8 -0.94 8 -4 8 Z " fill="#403F3F" transform="translate(31,45)"/>
<path d="M0 0 C0.98484375 0.01804687 1.9696875 0.03609375 2.984375 0.0546875 C4.10585938 0.08949219 4.10585938 0.08949219 5.25 0.125 C4.99379316 1.7315676 4.71944129 3.3352483 4.4375 4.9375 C4.28667969 5.83082031 4.13585938 6.72414063 3.98046875 7.64453125 C3.18742879 10.33747442 2.50491958 11.47951814 0.25 13.125 C-4.17105263 12.70394737 -4.17105263 12.70394737 -5.75 11.125 C-6.08 12.115 -6.41 13.105 -6.75 14.125 C-7.41 14.125 -8.07 14.125 -8.75 14.125 C-8.80399736 12.66707116 -8.84279177 11.20857288 -8.875 9.75 C-8.90980469 8.53183594 -8.90980469 8.53183594 -8.9453125 7.2890625 C-8.75 5.125 -8.75 5.125 -6.75 3.125 C-7.74 2.795 -8.73 2.465 -9.75 2.125 C-6.40060119 0.09941119 -3.88037449 -0.09238987 0 0 Z " fill="#F5F5F5" transform="translate(30.75,11.875)"/>
<path d="M0 0 C3.63 0 7.26 0 11 0 C11 1.65 11 3.3 11 5 C8.77228658 5.50643553 6.54275924 6.0048962 4.3125 6.5 C2.45044922 6.91765625 2.45044922 6.91765625 0.55078125 7.34375 C-2.43974243 7.89645405 -4.98546853 8.04223512 -8 8 C-8.99 8.33 -9.98 8.66 -11 9 C-11 8.34 -11 7.68 -11 7 C-11.66 7 -12.32 7 -13 7 C-12.67 6.01 -12.34 5.02 -12 4 C-9.0625 2.75 -9.0625 2.75 -6 2 C-5.34 2.33 -4.68 2.66 -4 3 C-4 2.34 -4 1.68 -4 1 C-3.01 1.33 -2.02 1.66 -1 2 C-0.67 1.34 -0.34 0.68 0 0 Z " fill="#FAE8C9" transform="translate(24,39)"/>
<path d="M0 0 C0.33 0 0.66 0 1 0 C1.55353075 11.70615034 1.55353075 11.70615034 -2 16 C-4.475 15.01 -4.475 15.01 -7 14 C-6.34 11.69 -5.68 9.38 -5 7 C-6.32 8.65 -7.64 10.3 -9 12 C-10.32 11.67 -11.64 11.34 -13 11 C-12.71125 10.443125 -12.4225 9.88625 -12.125 9.3125 C-10.9586747 6.91505355 -9.9660119 4.48403061 -9 2 C-7.6078125 2.3403125 -7.6078125 2.3403125 -6.1875 2.6875 C-3.03451098 3.36931802 -3.03451098 3.36931802 -1.1875 1.5625 C-0.795625 1.046875 -0.40375 0.53125 0 0 Z " fill="#444240" transform="translate(57,28)"/>
<path d="M0 0 C4.571279 0.54855348 8.67435795 1.41744803 13 3 C13 3.66 13 4.32 13 5 C14.6396875 5.4021875 14.6396875 5.4021875 16.3125 5.8125 C21.39370079 7.4488189 21.39370079 7.4488189 23 10 C23.1875 12.6875 23.1875 12.6875 23 15 C22.01 15.33 21.02 15.66 20 16 C20 16.99 20 17.98 20 19 C18.125 18.6875 18.125 18.6875 16 18 C15.34 17.01 14.68 16.02 14 15 C14.99 14.67 15.98 14.34 17 14 C16.67 12.35 16.34 10.7 16 9 C15.01 9 14.02 9 13 9 C12 8 12 8 11 5 C10.01 5.33 9.02 5.66 8 6 C8 5.34 8 4.68 8 4 C6.68 3.67 5.36 3.34 4 3 C3.67 3.66 3.34 4.32 3 5 C3 4.01 3 3.02 3 2 C2.01 2 1.02 2 0 2 C0 1.34 0 0.68 0 0 Z " fill="#EFB34E" transform="translate(37,37)"/>
<path d="M0 0 C1.485 0.99 1.485 0.99 3 2 C4.9896995 2.39013716 6.99019869 2.73202649 9 3 C8.979375 4.03125 8.95875 5.0625 8.9375 6.125 C8.99276661 9.55152969 9.34550715 12.64572414 10 16 C9.01 16 8.02 16 7 16 C6.67 17.32 6.34 18.64 6 20 C6 18.68 6 17.36 6 16 C5.01 15.67 4.02 15.34 3 15 C3.33 11.7 3.66 8.4 4 5 C2.68 4.67 1.36 4.34 0 4 C0 2.68 0 1.36 0 0 Z " fill="#EDB049" transform="translate(24,22)"/>
<path d="M0 0 C1.9375 1.4375 1.9375 1.4375 3 3 C3 3.66 3 4.32 3 5 C2.21625 5.12375 1.4325 5.2475 0.625 5.375 C-2.14057822 5.79117993 -2.14057822 5.79117993 -4 8 C-6.625 7.625 -6.625 7.625 -9 7 C-10.31236443 2.5856833 -10.31236443 2.5856833 -9 0.125 C-5.80678882 -1.67118129 -3.45193985 -0.86298496 0 0 Z " fill="#F9ECD5" transform="translate(58,24)"/>
<path d="M0 0 C0.66 0.66 1.32 1.32 2 2 C3.34386088 1.71202981 4.6757713 1.36784131 6 1 C7.99963028 0.96154557 10.00051633 0.95455719 12 1 C11.25 5.75 11.25 5.75 9 8 C4.44444444 7.44444444 4.44444444 7.44444444 3 6 C2.67 6.99 2.34 7.98 2 9 C1.34 9 0.68 9 0 9 C0 6.03 0 3.06 0 0 Z " fill="#F1EFEC" transform="translate(22,17)"/>
<path d="M0 0 C1.32 0.33 2.64 0.66 4 1 C4 1.66 4 2.32 4 3 C3.071875 3.433125 2.14375 3.86625 1.1875 4.3125 C-1.51329732 5.74233387 -3.00144464 6.8015891 -5 9 C-7.70879335 10.35439668 -10.00933268 10.06501451 -13 10 C-13 9.01 -13 8.02 -13 7 C-12.31292969 6.82984375 -11.62585937 6.6596875 -10.91796875 6.484375 C-9.56638672 6.12085938 -9.56638672 6.12085938 -8.1875 5.75 C-7.29417969 5.51796875 -6.40085937 5.2859375 -5.48046875 5.046875 C-2.62353901 3.84111568 -1.61630966 2.59898297 0 0 Z " fill="#EEB148" transform="translate(45,47)"/>
<path d="M0 0 C2.31 0.66 4.62 1.32 7 2 C7 2.66 7 3.32 7 4 C8.32 4.66 9.64 5.32 11 6 C10.67 7.32 10.34 8.64 10 10 C8.35 9.67 6.7 9.34 5 9 C5 8.34 5 7.68 5 7 C4.34 7 3.68 7 3 7 C2.67 6.34 2.34 5.68 2 5 C1.01 4.67 0.02 4.34 -1 4 C-0.67 2.68 -0.34 1.36 0 0 Z " fill="#F5D298" transform="translate(44,41)"/>
<path d="M0 0 C1.5625 1.6875 1.5625 1.6875 3 4 C2.6875 6.75 2.6875 6.75 2 9 C-0.375 8.8125 -0.375 8.8125 -3 8 C-4.3125 5.4375 -4.3125 5.4375 -5 3 C-3.35 2.01 -1.7 1.02 0 0 Z " fill="#F2F1F0" transform="translate(11,26)"/>
<path d="M0 0 C0.33 1.32 0.66 2.64 1 4 C2.65 4 4.3 4 6 4 C6 4.33 6 4.66 6 5 C4.43883181 5.33951619 2.87598662 5.67132544 1.3125 6 C0.00732422 6.2784375 0.00732422 6.2784375 -1.32421875 6.5625 C-3.93917673 6.99005517 -6.35772022 7 -9 7 C-9.99 7.33 -10.98 7.66 -12 8 C-12 7.34 -12 6.68 -12 6 C-12.66 6 -13.32 6 -14 6 C-13.67 5.01 -13.34 4.02 -13 3 C-10.9375 2.3125 -10.9375 2.3125 -9 2 C-9 2.66 -9 3.32 -9 4 C-5.71023192 5.09658936 -4.28696233 4.79953138 -1 4 C-0.67 2.68 -0.34 1.36 0 0 Z " fill="#F0B652" transform="translate(25,40)"/>
<path d="M0 0 C0.66 0.33 1.32 0.66 2 1 C2 1.66 2 2.32 2 3 C2.99 3.66 3.98 4.32 5 5 C4.67 5.99 4.34 6.98 4 8 C2.35 7.67 0.7 7.34 -1 7 C-1.625 4.625 -1.625 4.625 -2 2 C-1.34 1.34 -0.68 0.68 0 0 Z " fill="#E4DDD1" transform="translate(50,24)"/>
<path d="M0 0 C1.32 0 2.64 0 4 0 C4 1.65 4 3.3 4 5 C0.67465243 6.10844919 -1.62182575 5.84454356 -5 5 C-4.360625 4.731875 -3.72125 4.46375 -3.0625 4.1875 C-0.66868314 3.11332248 -0.66868314 3.11332248 0 0 Z " fill="#F7D9A5" transform="translate(31,39)"/>
<path d="M0 0 C2.31 0.33 4.62 0.66 7 1 C6.34 2.32 5.68 3.64 5 5 C3.35 5 1.7 5 0 5 C0 3.35 0 1.7 0 0 Z " fill="#FAEACD" transform="translate(36,39)"/>
<path d="M0 0 C2.31 0.66 4.62 1.32 7 2 C6.34 3.32 5.68 4.64 5 6 C3.02 5.34 1.04 4.68 -1 4 C-0.67 2.68 -0.34 1.36 0 0 Z " fill="#FBEDD6" transform="translate(44,41)"/>
<path d="M0 0 C0.33 1.65 0.66 3.3 1 5 C-0.32 5.33 -1.64 5.66 -3 6 C-3 5.34 -3 4.68 -3 4 C-3.66 4 -4.32 4 -5 4 C-4.67 3.01 -4.34 2.02 -4 1 C-2 0 -2 0 0 0 Z " fill="#F9E0B7" transform="translate(16,42)"/>
<path d="M0 0 C1.32 0.33 2.64 0.66 4 1 C4 1.66 4 2.32 4 3 C2.1875 4.0625 2.1875 4.0625 0 5 C-0.99 4.67 -1.98 4.34 -3 4 C-2.01 2.68 -1.02 1.36 0 0 Z " fill="#49443F" transform="translate(45,47)"/>
<path d="M0 0 C0.433125 0.9590625 0.433125 0.9590625 0.875 1.9375 C1.82823451 4.15206079 1.82823451 4.15206079 4 5 C2.02 5.33 0.04 5.66 -2 6 C-2.33 4.35 -2.66 2.7 -3 1 C-2.01 1.33 -1.02 1.66 0 2 C0 1.34 0 0.68 0 0 Z " fill="#F6D193" transform="translate(20,40)"/>
<path d="M0 0 C-0.33 1.32 -0.66 2.64 -1 4 C-2.65 3.67 -4.3 3.34 -6 3 C-6 2.34 -6 1.68 -6 1 C-3 0 -3 0 0 0 Z " fill="#FCFCFB" transform="translate(14,31)"/>
<path d="M0 0 C2.31 0.33 4.62 0.66 7 1 C7 1.99 7 2.98 7 4 C6.01 3.67 5.02 3.34 4 3 C3.67 3.66 3.34 4.32 3 5 C3 4.01 3 3.02 3 2 C2.01 2 1.02 2 0 2 C0 1.34 0 0.68 0 0 Z " fill="#EAB151" transform="translate(37,37)"/>
</svg>
